# xmcd
#
# Track frame offsets: 
#        150
#        12668
#        27635
#        37903
#        50334
#        61075
#        72154
#        86059
#        98332
#        111269
#        122289
#        142198
#        150369
#        162197
#
# Disc length: 2433 seconds
#
# Revision: 0
# Processed by: cddbd v1.5.2PL0 Copyright (c) Steve Scherf et al.
# Submitted via: ExactAudioCopy v0.95b4
#
DISCID=ad097f0e
DTITLE=Dieter Kropp - Schönen Gruß Vom Blues!
DYEAR=2010
DGENRE=Blues
TTITLE0=Doktor Blues
TTITLE1=Zentrale Tanzschaffe
TTITLE2=Finanzgenie
TTITLE3=Dem Fräulein Gegenüber
TTITLE4=Wenn In Der City Die Laternen Blühen
TTITLE5=Sammler Und Jäger
TTITLE6=Schönen Gruss Vom Blues
TTITLE7=Klammerblues
TTITLE8=Multifunktional
TTITLE9=Profi
TTITLE10=Dicker Fingerring
TTITLE11=Deine Scharfen Moleküle
TTITLE12=Vertrau Niemals Einer Hübschen Frau
TTITLE13=Ich Stand An Meinem Grabe
EXTD=
EXTT0=
EXTT1=
EXTT2=
EXTT3=
EXTT4=
EXTT5=
EXTT6=
EXTT7=
EXTT8=
EXTT9=
EXTT10=
EXTT11=
EXTT12=
EXTT13=
PLAYORDER=
